# xmcd
#
# Track frame offsets: 
#        150
#        11787
#        28260
#        40915
#        58242
#        75747
#        89195
#        104907
#        115760
#        132997
#        150490
#        170200
#        186137
#        201292
#
# Disc length: 2831 seconds
#
# Revision: 0
# Processed by: cddbd v1.5.1PL0 Copyright (c) Steve Scherf et al.
# Submitted via: ExactAudioCopy v0.95a3
#
DISCID=cf0b0d0e
DTITLE=Various Artist - HOT HITS Country Vol. 12
DYEAR=1900
DGENRE=Country
TTITLE0=Vince Gill - Take Your Memory With You
TTITLE1=Steve Wariner - The Tips Of My Fingers
TTITLE2=Aaron Tippin - Tere Ain't Nothing Wrong With The Radio
TTITLE3=Trisha Yearwood - The Woman Before Me
TTITLE4=Travis Tritt - Nothing Short Of Dying
TTITLE5=Marty Stuart - Burn Me Down
TTITLE6=Lee Roy Parnell - The Rock
TTITLE7=Mark Chesnutt - Old Flames Have New Names
TTITLE8=Keith Whitley - Somebody's Doin' Me Right
TTITLE9=Tanya Tucker - Some Kind Of Trouble
TTITLE10=Brooks and Dunn - Neon Moon
TTITLE11=Lionel Cartwright - Family Tree
TTITLE12=Pirates Of The Mississippi - 'Til I'm Holding You Again
TTITLE13=George Jones - Honky Tonk Myself To Death
EXTD=
EXTT0=
EXTT1=
EXTT2=
EXTT3=
EXTT4=
EXTT5=
EXTT6=
EXTT7=
EXTT8=
EXTT9=
EXTT10=
EXTT11=
EXTT12=
EXTT13=
PLAYORDER=
